PathFileType	4	(X/Y/Z)	../Python\running\Running15\task.trc
DataRate	CameraRate	NumFrames	NumMarkers	Units	OrigDataRate	OrigDataStartFrame	OrigNumFrames
200.000000	200.000000	4	30	mm	200.000000	188	215
Frame#	Time	C7			RBAK			CLAV			STRN			RASI			LASI			RTH1			RTH2			RTH3			RTB2			RHEE			RD5M			RTOE			LTH3			LTB2			LTB3			LHEE			LTOE			LD5M			RTB3			RTB1			T10			PE01			LPSI			PE03			PE02			LTH2			RPSI			LTH1			LTB1			
		X1	Y1	Z1	X2	Y2	Z2	X3	Y3	Z3	X4	Y4	Z4	X5	Y5	Z5	X6	Y6	Z6	X7	Y7	Z7	X8	Y8	Z8	X9	Y9	Z9	X10	Y10	Z10	X11	Y11	Z11	X12	Y12	Z12	X13	Y13	Z13	X14	Y14	Z14	X15	Y15	Z15	X16	Y16	Z16	X17	Y17	Z17	X18	Y18	Z18	X19	Y19	Z19	X20	Y20	Z20	X21	Y21	Z21	X22	Y22	Z22	X23	Y23	Z23	X24	Y24	Z24	X25	Y25	Z25	X26	Y26	Z26	X27	Y27	Z27	X28	Y28	Z28	X29	Y29	Z29	X30	Y30	Z30	

189	0.9400000000000001	1064.73486328125	1359.249267578125	141.3536224365235	1070.8759765625	1289.365356445313	274.7672424316407	1171.421508789063	1264.860473632813	102.0943908691407	1217.913696289063	1082.676879882813	115.9968032836915	1156.840576171875	859.7012329101567	288.0176086425782	1175.292724609375	879.050415039063	68.43064117431643	980.4511108398442	591.244323730469	289.5000305175782	971.8281860351567	514.4058837890627	270.2102661132814	1015.878173828125	555.9378051757815	283.3645629882814	756.4939575195315	381.5958862304689	214.0990600585939	564.622009277344	307.6979064941407	86.81922149658206	587.696472167969	179.2522735595704	180.754623413086	623.4473266601565	150.2628021240235	144.2578887939454	1242.637451171875	626.8875732421877	9.999114036560062	1288.457397460938	241.2070922851564	54.60322952270511	1320.9501953125	279.047332763672	52.80033493041995	1292.78271484375	83.01351165771487	114.1104049682618	1475.513061523438	47.94838333129884	133.7124176025391	1440.794189453125	28.12164115905763	86.37995910644534	743.4832153320315	335.4608764648439	201.7454223632814	815.041870117188	363.6652221679689	224.3615875244142	1006.394897460938	1077.242797851563	193.5674743652345	995.5169067382817	975.4538574218755	182.978500366211	978.4906616210942	941.7680664062505	136.8419189453126	965.2683105468755	926.191284179688	148.1810302734376	959.6693725585942	921.3606567382817	198.5265197753907	1191.713134765625	571.6646728515627	35.62657928466798	979.6731567382817	949.1137084960942	222.3513031005861	1193.239990234375	629.0299072265627	12.68494987487794	1274.38818359375	317.9018859863282	41.14183044433595	
190	0.9450000000000001	1081.366577148438	1356.163208007813	140.3708496093751	1086.980224609375	1286.748168945313	273.986297607422	1188.54736328125	1261.669677734375	102.0529022216797	1234.96484375	1079.034790039063	116.3089218139649	1174.546630859375	857.200317382813	287.8372497558595	1192.133056640625	876.117065429688	67.78169250488284	1001.788452148438	586.460388183594	290.3709411621095	994.3693237304692	509.3168945312502	271.6969299316407	1037.71044921875	551.6045532226565	284.717498779297	779.071899414063	379.6017456054689	215.2295837402345	585.8084716796877	307.2080688476564	86.46618652343753	609.8542480468752	180.7620239257813	183.0196533203126	645.9713134765627	151.2131347656251	147.4631652832032	1259.357543945313	625.1812133789065	11.75216102600098	1296.771728515625	237.3474578857423	55.24423599243167	1330.544799804688	274.006805419922	53.66869735717776	1295.510009765625	77.7126388549805	114.4018936157227	1478.2919921875	42.33505249023439	136.239730834961	1443.700317382813	23.49504280090333	87.1110534667969	765.3155517578127	333.6021728515626	202.8720092773439	837.3148803710942	360.5578613281251	225.8126068115236	1023.262512207032	1074.003295898438	193.3943176269532	1011.643493652344	971.558227539063	182.8618316650391	995.2102050781255	937.7468261718755	136.6594848632813	981.8576660156255	921.8712768554692	148.1846008300782	976.7480468750005	916.9484252929692	198.5337219238282	1208.872924804688	568.856384277344	35.38715744018556	996.2639160156255	944.8479614257817	222.1965179443361	1210.017211914063	626.5177001953127	13.19586563110352	1285.570068359375	314.3264770507814	41.30049133300783	
191	0.9500000000000001	1097.99169921875	1352.890502929688	139.3942565917969	1102.931884765625	1283.822875976563	273.2107543945314	1205.7431640625	1258.20263671875	102.0884323120118	1252.072265625	1075.111450195313	116.680046081543	1192.17041015625	854.409057617188	287.5757446289064	1208.855712890625	873.1215209960942	67.08984375000003	1023.247314453125	581.4324340820315	291.2793273925782	1017.063171386719	503.9949340820315	273.2242431640626	1059.664672851563	547.0374145507815	286.097381591797	802.078002929688	377.217498779297	216.5770111083986	607.3967895507815	306.4634704589845	86.44645690917972	632.443786621094	182.0223693847657	185.5303802490235	668.8408813476565	151.9064483642579	150.8636016845704	1276.248901367188	623.5802001953127	13.67068576812745	1304.650024414063	233.5596618652345	55.83675003051761	1339.704467773438	268.9620056152345	54.55461502075198	1297.476928710938	72.42707824707034	114.6084365844727	1480.50537109375	37.85620117187501	138.7099609375001	1446.10205078125	19.88169288635255	87.58593750000003	787.6156616210942	331.3564758300782	204.1250305175782	860.015502929688	357.0984191894532	227.3628540039064	1040.1181640625	1070.53515625	193.2373657226564	1027.635986328125	967.4684448242192	182.8988952636719	1011.85302734375	933.6174316406255	136.569076538086	998.3742065429692	917.3952026367192	148.246078491211	993.7700805664067	912.2844238281255	198.5761108398439	1226.217041015625	565.9804687500002	34.8590774536133	1012.811645507813	940.2619018554692	222.1504669189454	1226.965454101563	624.0152587890627	13.62627124786378	1296.454956054688	310.7537841796876	41.42982864379884	
192	0.9550000000000001	1114.615478515625	1349.458374023438	138.4286651611329	1118.726806640625	1280.612426757813	272.4424743652345	1223.006958007813	1254.478271484375	102.2050170898438	1269.230590820313	1070.932006835938	117.1179580688477	1209.70263671875	851.343383789063	287.223602294922	1225.448486328125	870.0942382812505	66.35291290283206	1044.84375	576.195007324219	292.2298889160157	1039.921142578125	498.4826660156252	274.7824707031251	1081.75634765625	542.2741699218752	287.4836730957032	825.521850585938	374.4639587402345	218.1413574218751	629.3875732421877	305.4888305664064	86.81095123291018	655.4779052734377	183.0114898681641	188.2713165283204	692.0657348632815	152.3326416015626	154.420639038086	1293.253662109375	621.9206542968752	15.56659030914307	1312.134033203125	229.8977203369142	56.37659454345706	1348.452270507813	263.9802551269532	55.46298980712893	1298.756958007813	67.27211761474612	114.7703857421876	1482.203247070313	34.54130172729494	141.0450286865235	1448.036254882813	17.27882385253907	87.84633636474612	810.3964233398442	328.7458801269532	205.5101928710939	883.148315429688	353.3220825195314	229.0145416259767	1056.955200195313	1066.867309570313	193.0908050537111	1043.502075195313	963.219604492188	183.1062774658204	1028.41015625	929.4251098632817	136.5880737304688	1014.811767578125	912.8052368164067	148.3848266601563	1010.726257324219	907.4140625000005	198.6745758056642	1243.6123046875	563.032653808594	34.10039138793947	1029.319458007813	935.3920288085942	222.2299804687501	1244.01806640625	621.481628417969	13.9322738647461	1307.053588867188	307.2323608398439	41.54293441772462	
